<svg width="60" height="60" viewBox="0 0 60 60" fill="none" xmlns="http://www.w3.org/2000/svg">
<g id="docs_logo_white">
<g id="logo">
<g id="medical">
<g id="Group">
<path id="Shape" fill-rule="evenodd" clip-rule="evenodd" d="M25.3102 6.90719L14.5549 0.364175C13.7537 -0.121392 12.7461 -0.121392 11.9449 0.364175L1.18964 6.90719C0.449149 7.35634 0 8.15752 0 9.00726V22.0812C0 22.943 0.449149 23.7321 1.18964 24.1812L11.9449 30.7242C12.3455 30.967 13.4016 31.404 14.5549 30.7242L25.3102 24.1812C26.0507 23.7321 26.4998 22.9309 26.4998 22.0812V9.00726C26.4998 8.14538 26.0507 7.35634 25.3102 6.90719ZM21.5106 20.6973L13.2438 25.7229L4.97705 20.6973V10.3911L13.2438 5.36551L21.5106 10.3911V20.6973Z" transform="translate(32.9871 28.3983)" fill="white" fill-opacity="0.7"/>
<path id="Shape_2" fill-rule="evenodd" clip-rule="evenodd" d="M25.3102 6.90719L14.5549 0.364175C13.7537 -0.121392 12.7461 -0.121392 11.9449 0.364175L1.18964 6.90719C0.449149 7.35634 0 8.15752 0 9.00726V22.0812C0 22.943 0.449149 23.7321 1.18964 24.1812L11.9449 30.7242C12.3455 30.967 13.4016 31.404 14.5549 30.7242L25.3102 24.1812C26.0507 23.7321 26.4998 22.9309 26.4998 22.0812V9.00726C26.4998 8.14538 26.0507 7.35634 25.3102 6.90719ZM21.5228 20.6973L13.256 25.7229L4.98926 20.6973V10.3911L13.256 5.36551L21.5228 10.3911V20.6973Z" transform="translate(0.00488281 28.3983)" fill="white"/>
<path id="Shape_3" fill-rule="evenodd" clip-rule="evenodd" d="M26.5119 22.0812V9.00726C26.5119 8.14538 26.0628 7.35634 25.3223 6.90719L14.5549 0.364175C13.7537 -0.121392 12.7461 -0.121392 11.9449 0.364175L1.18964 6.90719C0.449149 7.35634 0 8.15752 0 9.00726V22.0812C0 22.943 0.449149 23.7321 1.18964 24.1812L11.9449 30.7242C12.3455 30.967 13.4016 31.404 14.5549 30.7242L25.3102 24.1812C26.0628 23.7442 26.5119 22.943 26.5119 22.0812ZM21.5228 20.6973L13.256 25.7229L4.98926 20.6973V10.3911L13.256 5.36552L21.5228 10.3911V20.6973Z" transform="translate(16.49 0.00479889)" fill="white"/>
</g>
</g>
</g>
</g>
</svg>
